<svg xmlns="http://www.w3.org/2000/svg" data-name="Layer 1" viewBox="0 0 100 125" x="0px" y="0px"><title>ticket, air, plane, travel, airport</title><path d="M91.25,28.75H85L83.34,18.46,19.49,28.75H8.75v42.5h82.5Zm-2.5,40H11.25V31.25H55v-2.5H35.19l46.08-7.43,1.2,7.43H61v2.5H88.75Z"/><path d="M78,48.9a2.57,2.57,0,0,1,1.54,4.91L56.29,61.1c-1.59.51-7,.4-10,.23a5.13,5.13,0,0,1-4.23-3.54L39.93,51l2.34-.24a1.49,1.49,0,0,1,1.13.37l1.74,1.68a11.77,11.77,0,0,0,10.74,3l.35-.08-.54-2.43-.35.07A9.27,9.27,0,0,1,46.88,51l-1.77-1.7a4,4,0,0,0-3.1-1l-5.38.56,3,9.73h0a7.64,7.64,0,0,0,6.38,5.28c.45,0,2.76.16,5.21.16A23.79,23.79,0,0,0,57,63.49L80.32,56.2a5.08,5.08,0,0,0-3-9.69L72.64,48l.75,2.38Z"/><path d="M55.4,42.69,51.54,43.9l7.74,13.58,2.17-1.23L55.24,45.36l.91-.29a2.71,2.71,0,0,1,2.41.42l12,8.94,1.49-2-12-8.94A5.2,5.2,0,0,0,55.4,42.69Z"/><rect x="16" y="36.75" width="31" height="2.5"/><rect x="16" y="44.75" width="15" height="2.5"/><text x="0" y="115" fill="#000000" font-size="5px" font-weight="bold" font-family="'Helvetica Neue', Helvetica, Arial-Unicode, Arial, Sans-serif">Created by Bernar  Novalyi</text><text x="0" y="120" fill="#000000" font-size="5px" font-weight="bold" font-family="'Helvetica Neue', Helvetica, Arial-Unicode, Arial, Sans-serif">from the Noun Project</text></svg>